<?xml version="1.0" encoding="UTF-8" standalone="no"?>
<!-- Created with Inkscape (http://www.inkscape.org/) -->

<svg
   xmlns:dc="http://purl.org/dc/elements/1.1/"
   xmlns:cc="http://creativecommons.org/ns#"
   xmlns:rdf="http://www.w3.org/1999/02/22-rdf-syntax-ns#"
   xmlns:svg="http://www.w3.org/2000/svg"
   xmlns="http://www.w3.org/2000/svg"
   xmlns:sodipodi="http://sodipodi.sourceforge.net/DTD/sodipodi-0.dtd"
   xmlns:inkscape="http://www.inkscape.org/namespaces/inkscape"
   width="500mm"
   height="500mm"
   viewBox="0 0 500 500"
   version="1.1"
   id="svg4537"
   inkscape:version="0.92.4 (5da689c313, 2019-01-14)"
   sodipodi:docname="dino.svg">
  <defs
     id="defs4531" />
  <sodipodi:namedview
     id="base"
     pagecolor="#ffffff"
     bordercolor="#666666"
     borderopacity="1.0"
     inkscape:pageopacity="0.0"
     inkscape:pageshadow="2"
     inkscape:zoom="0.35"
     inkscape:cx="-528.57143"
     inkscape:cy="560"
     inkscape:document-units="mm"
     inkscape:current-layer="layer1"
     showgrid="false"
     inkscape:window-width="2560"
     inkscape:window-height="1377"
     inkscape:window-x="-8"
     inkscape:window-y="1072"
     inkscape:window-maximized="1" />
  <metadata
     id="metadata4534">
    <rdf:RDF>
      <cc:Work
         rdf:about="">
        <dc:format>image/svg+xml</dc:format>
        <dc:type
           rdf:resource="http://purl.org/dc/dcmitype/StillImage" />
        <dc:title></dc:title>
      </cc:Work>
    </rdf:RDF>
  </metadata>
  <g
     inkscape:label="Layer 1"
     inkscape:groupmode="layer"
     id="layer1"
     transform="translate(0,203)">
    <path
       style="fill:#000000;stroke-width:2.01416016"
       d="m 249.40282,160.68524 c -1.45132,-1.74874 -4.3505,-2.70968 -6.48835,-2.15062 -3.00461,0.78569 -3.64384,0.16587 -2.87221,-2.78468 0.54588,-2.08736 0.1019,-4.09214 -0.98667,-4.45496 -1.0885,-0.36311 -0.2828,-2.75453 1.79045,-5.31495 2.99819,-3.70259 6.05641,-4.75646 14.94476,-5.15019 6.14638,-0.27254 12.23465,-1.14974 13.52959,-1.95004 3.62404,-2.23978 2.79314,-13.12552 -1.53528,-20.11417 -3.29252,-5.31609 -30.29505,-29.443024 -32.95219,-29.443024 -1.7304,0 -11.79036,24.411024 -12.91437,31.337314 -0.66318,4.08714 -3.20772,8.69228 -6.02883,10.91141 -2.68468,2.11172 -6.86622,6.71932 -9.29235,10.23907 -6.49839,9.42757 -16.66064,12.22108 -38.65184,10.62496 -12.37576,-0.89822 -18.81712,-2.2534 -20.30103,-4.27105 -1.7375,-2.36233 -3.05092,-2.48573 -6.54604,-0.6151 -6.34551,3.39606 -5.37713,-0.6265 1.5551,-6.45955 3.91727,-3.29618 10.51587,-5.78665 19.45722,-7.34379 22.40898,-3.90237 28.75797,-9.21249 32.0601,-26.81438 1.43289,-7.637845 -1.31327,-22.847535 -6.51734,-36.096676 -2.8376,-7.224273 -3.23916,-7.445252 -16.01483,-8.813467 -9.02904,-0.966873 -17.08696,-3.51686 -25.91117,-8.199658 -7.04382,-3.737912 -14.4673,-6.796276 -16.49665,-6.796276 -4.77561,0 -13.43111,13.382079 -16.60955,25.679572 -4.19307,16.223307 -4.04333,15.919857 -6.18519,12.53304 -1.03123,-1.630684 -1.88885,-5.626907 -1.90583,-8.880616 l -0.0311,-5.915717 -5.649135,5.412155 c -3.10703,2.976744 -6.279337,5.412228 -7.049559,5.412228 -2.469507,0 -1.499049,-6.033648 1.773868,-11.028702 3.46012,-5.280847 4.185342,-4.940404 -16.928607,-7.946989 -2.644916,-0.376827 -5.154576,0.541259 -5.754441,2.104332 -1.596653,4.160802 -4.661153,3.334989 -4.661153,-1.256072 0,-5.724433 -3.380766,-4.984789 -6.904588,1.510638 -2.795155,5.152263 -3.010559,5.227317 -3.085567,1.075441 -0.04417,-2.454917 1.461957,-7.698382 3.347356,-11.652117 2.889244,-6.058844 4.234586,-7.030047 8.56018,-6.179743 15.230656,2.994109 19.773622,3.237876 24.791197,1.330153 6.394739,-2.431228 6.922743,-6.400187 2.317723,-17.421593 C 93.496349,27.58877 92.536845,21.739108 93.124241,18.802105 94.395756,12.44445 88.887906,2.4412399 81.422466,-2.4503801 75.615356,-6.2552901 77.63888,-7.2943501 56.655242,10.26697 43.879196,20.959286 38.802705,22.820532 34.406461,18.42431 30.817094,14.83497 31.47125,9.2745799 36.017791,4.7280499 c 2.215581,-2.21557 4.028322,-4.49749998 4.028322,-5.07097998 0,-0.57322 3.172297,-4.12340002 7.049554,-7.88874002 7.469755,-7.2540899 8.011214,-8.5880399 5.253109,-12.9410699 -1.442429,-2.27655 -2.951758,-2.29793 -8.956504,-0.12623 -3.97195,1.43627 -9.313179,4.55071 -11.869396,6.92095 -2.556218,2.37025 -5.657688,3.97287 -6.892153,3.56139 -1.23447,-0.41183 -3.644505,0.65165 -5.355642,2.3630299 -4.216722,4.21669 -5.945665,3.94072 -11.3497287,-1.8116299 -3.6686799,-3.90512 -4.3637754,-6.31356 -3.3625103,-11.65083 1.8127212,-9.66263 6.263755,-15.05674 16.87369,-20.44887 5.7815,-2.93825 12.422641,-8.85114 17.498264,-15.57952 12.653372,-16.77371 37.731518,-27.31422 54.7962,-23.03123 3.383849,0.84926 13.290364,9.45413 25.137344,21.83446 l 19.5525,20.43275 14.76224,-2.71381 c 27.64287,-5.08169 37.25778,-4.87966 81.27768,1.7078 57.59186,8.61851 92.74047,16.60249 130.87224,29.7277199 82.04459,28.2402101 95.87519,32.6161311 113.631,35.9517281 18.88403,3.547698 18.94595,3.578756 14.41197,7.25015 -11.00917,8.91469 -39.70513,10.477349 -69.98508,3.811093 -10.16407,-2.237732 -30.2126,-4.662321 -44.55226,-5.388126 -24.25664,-1.227592 -27.45803,-0.944255 -45.97302,4.068942 -10.94545,2.963659 -24.43266,7.547496 -29.9716,10.186302 -5.53894,2.63883 -13.97079,5.836626 -18.73745,7.106195 -4.76666,1.269546 -9.15668,3.585275 -9.7556,5.146013 -0.59888,1.560738 1.71493,7.738317 5.14187,13.727993 3.42695,5.989701 6.23082,13.656199 6.23082,17.036643 0,3.495531 2.04261,8.60173 4.73616,11.839727 8.9196,10.72255 9.52174,13.26257 7.16534,30.22566 -3.46483,24.94275 -3.24471,24.42669 -12.41829,29.10674 -7.58811,3.87116 -9.47251,4.08324 -17.41208,1.95972 -6.15912,-1.64729 -9.54813,-1.73611 -10.99612,-0.28774 -2.85482,2.85484 -4.37078,2.63734 -7.4461,-1.06812 z"
       id="path826"
       inkscape:connector-curvature="0"
       sodipodi:nodetypes="cccccccsscccsccccccccscccccscccsccccccsccccsccccccscsccscssccsccccccssccccccc" />
  </g>
</svg>
